<svg width="75" height="75" viewBox="0 0 75 75" fill="none" xmlns="http://www.w3.org/2000/svg">
<path d="M39.3267 7.01807C35.9677 7.01803 32.6749 7.95163 29.8158 9.71461C26.9568 11.4776 24.644 14.0006 23.1358 17.0018C21.6275 20.0031 20.9832 23.3645 21.2747 26.7108C21.5662 30.057 22.7821 33.2564 24.7866 35.9517C24.9214 36.1318 26.2266 37.7959 26.3335 37.9424C29.2632 41.9795 30.1992 44.584 30.4775 45.5859H30.2446C30.1464 45.5857 30.0491 45.6049 29.9583 45.6424C29.8675 45.6798 29.785 45.7348 29.7154 45.8042C29.6459 45.8736 29.5907 45.956 29.5531 46.0468C29.5155 46.1375 29.4961 46.2348 29.4961 46.333V51.0571C29.4961 51.2556 29.575 51.446 29.7153 51.5864C29.8557 51.7268 30.0461 51.8057 30.2446 51.8057H48.7793C48.8775 51.8057 48.9748 51.7863 49.0655 51.7487C49.1563 51.711 49.2387 51.6559 49.3081 51.5863C49.3775 51.5168 49.4325 51.4343 49.4699 51.3435C49.5074 51.2527 49.5266 51.1554 49.5264 51.0571V46.333C49.5264 46.2349 49.507 46.1378 49.4695 46.0471C49.432 45.9565 49.3769 45.8741 49.3076 45.8047C49.2382 45.7354 49.1558 45.6804 49.0652 45.6428C48.9746 45.6053 48.8774 45.5859 48.7793 45.5859H48.1772C48.4541 44.5928 49.377 42.0264 52.2437 38.0522C52.4048 37.8281 53.6396 36.2446 53.7085 36.1567C56.1433 33.0003 57.458 29.1231 57.4453 25.1367C57.4395 20.3331 55.5287 15.728 52.1321 12.3313C48.7354 8.93467 44.1302 7.02388 39.3267 7.01807ZM51.6182 34.5571C51.5522 34.6436 50.2837 36.271 50.1079 36.5156C46.2993 41.7891 45.5947 44.8652 45.4746 45.5977H33.1831C33.063 44.8652 32.3467 41.7554 28.4678 36.4072C28.3418 36.2314 27.0161 34.541 26.9019 34.3887C25.1829 32.0781 24.1424 29.3339 23.8972 26.4644C23.652 23.595 24.2118 20.7141 25.5138 18.1453C26.8158 15.5765 28.8084 13.4218 31.2676 11.9231C33.7268 10.4244 36.5552 9.64125 39.435 9.66156C42.3148 9.68187 45.1319 10.5049 47.5697 12.0381C50.0076 13.5713 51.9695 15.754 53.2352 18.3408C54.5008 20.9277 55.02 23.8162 54.7343 26.6819C54.4487 29.5476 53.3695 32.2768 51.6182 34.563V34.5571Z" fill="white" stroke="white" stroke-width="1.5625"/>
<path d="M34.1645 56.0669C34.1645 56.3123 34.213 56.5554 34.307 56.7821C34.4011 57.0088 34.5389 57.2147 34.7127 57.3881C34.8865 57.5614 35.0927 57.6988 35.3196 57.7923C35.5466 57.8858 35.7897 57.9337 36.0352 57.9331H38.272V59.9956C38.272 60.7726 37.9633 61.5178 37.4139 62.0672C36.8645 62.6166 36.1193 62.9253 35.3423 62.9253H23.3379C22.5609 62.9253 21.8157 62.6166 21.2663 62.0672C20.7169 61.5178 20.4082 60.7726 20.4082 59.9956V53.0024H22.8193C23.6048 53.0013 24.3577 52.6886 24.913 52.1331C25.4682 51.5776 25.7805 50.8245 25.7812 50.0391V45.5142C25.7797 44.7603 25.491 44.0354 24.974 43.4868C24.457 42.9383 23.7505 42.6072 22.998 42.561V39.6533H20.5078V42.5508H18.1099V39.6533H15.6196V42.5508H15.5083C14.7227 42.5519 13.9696 42.8645 13.4142 43.42C12.8587 43.9755 12.5461 44.7286 12.5449 45.5142V50.0391C12.5457 50.8248 12.8582 51.5781 13.4137 52.1336C13.9693 52.6892 14.7226 53.0017 15.5083 53.0024H17.9194V59.9956C17.9194 61.4331 18.4905 62.8116 19.5069 63.8281C20.5233 64.8445 21.9019 65.4155 23.3394 65.4155H35.3408C36.7783 65.4155 38.1568 64.8445 39.1733 63.8281C40.1897 62.8116 40.7607 61.4331 40.7607 59.9956V57.9331H42.9976C43.4925 57.9331 43.9672 57.7365 44.3172 57.3865C44.6671 57.0365 44.8638 56.5618 44.8638 56.0669V53.9062H34.1704L34.1645 56.0669ZM15.1816 50.0391V45.5142C15.1816 45.4275 15.2161 45.3444 15.2773 45.2832C15.3386 45.2219 15.4217 45.1875 15.5083 45.1875H22.8208C22.9074 45.1875 22.9905 45.2219 23.0518 45.2832C23.113 45.3444 23.1475 45.4275 23.1475 45.5142V50.0391C23.1475 50.1257 23.113 50.2088 23.0518 50.27C22.9905 50.3313 22.9074 50.3657 22.8208 50.3657H15.5083C15.4217 50.3657 15.3386 50.3313 15.2773 50.27C15.2161 50.2088 15.1816 50.1257 15.1816 50.0391Z" fill="white" stroke="white" stroke-width="1.5625"/>
<path d="M45.0044 26.3877H42.1875C42.0349 26.3872 41.8847 26.3498 41.7498 26.2786C41.6149 26.2073 41.4993 26.1044 41.4129 25.9787C41.3264 25.8529 41.2718 25.7081 41.2536 25.5566C41.2355 25.4051 41.2543 25.2515 41.3086 25.1089L43.6773 18.8774C43.7315 18.7348 43.7504 18.5812 43.7322 18.4297C43.714 18.2782 43.6594 18.1334 43.573 18.0077C43.4866 17.8819 43.3709 17.779 43.236 17.7078C43.1011 17.6365 42.9509 17.5991 42.7983 17.5986H36.6709C36.4547 17.5983 36.245 17.6724 36.0769 17.8084C35.9089 17.9445 35.7928 18.1342 35.748 18.3457L33.1055 30.8057C33.0762 30.9431 33.0781 31.0854 33.1109 31.2221C33.1437 31.3588 33.2066 31.4864 33.295 31.5956C33.3835 31.7049 33.4952 31.7929 33.6221 31.8534C33.749 31.9139 33.8878 31.9453 34.0283 31.9453H38.0259C38.1648 31.9456 38.3019 31.9766 38.4275 32.036C38.5531 32.0954 38.664 32.1817 38.7524 32.2888C38.8408 32.396 38.9045 32.5213 38.9389 32.6559C38.9734 32.7904 38.9777 32.9309 38.9517 33.0674L37.9629 38.2075C37.7827 39.1465 39.0527 39.6167 39.5273 38.7935L45.8262 27.8071C45.9108 27.6633 45.9556 27.4997 45.9562 27.3328C45.9568 27.166 45.9131 27.002 45.8295 26.8576C45.7459 26.7132 45.6255 26.5936 45.4805 26.5111C45.3355 26.4285 45.1712 26.3859 45.0044 26.3877Z" fill="white" stroke="white" stroke-width="1.5625"/>
</svg>
