<svg xmlns="http://www.w3.org/2000/svg" width="75" height="75" fill="none"><path fill="#A1BBC6" d="m46 68.5-30.3-10 12-9.6 28.5 7.9-10.1 11.7Z"/><path fill="#678289" d="M56.2 56.8v1L46.1 69.4v-1l10.1-11.7Z"/><path fill="#BACCD3" d="M46 69.5v-1l-30.3-10v1l30.4 10Z"/><path fill="#8EA8AF" d="m44 53.4 11.5 3.2-8.6 1-2.9 1.3v-5.5Z"/><path fill="#7C99A3" d="M29.7 42.7 32 55.4 44 59l-2.1-12.4-12.2-3.8Z"/><path fill="#678289" d="m43.8 51.3 1.3 6.6-1.1 1-1.4-7.4 1.2-.2Z"/><path fill="#566971" d="M64.7 58 8.3 42.8v-36l56.4 12V58Z"/><path fill="#678289" d="m66.6 55-1.9 3V18.8l2-2-.1 38.3Z"/><path fill="#A1BBC6" d="M66.7 16.8 11 5.5 8.3 6.9l56.4 11.9 2-2Z"/><path fill="#BACCD3" d="M8.3 6.9v36L64.7 58V18.8L8.3 6.8ZM63.7 52 9 38V7.7l54.6 11.8V52Z"/><path fill="#fff" d="M62.3 53v1.3l-2.9-.8v-1.2l3 .8Z"/><path fill="#113B42" d="M62 53.3v.6l-2.2-.6v-.6l2.2.6Z"/><path fill="#fff" d="M57.7 51.9V53l-3-.8V51l3 .8Z"/><path fill="#113B42" d="M57.4 52v.8L55 52v-.6l2.4.6Z"/><path fill="#647F87" d="M62.5 51.5 46.9 16l16.8 3.6v32.3l-1.2-.4Z"/></svg>