<svg xmlns="http://www.w3.org/2000/svg" width="38" height="32" fill="none"><g clip-path="url(#a)"><path fill="#393" d="M18.8 28.1h-.4l-1-.8c-.3 0-.2 0-.1-.1.2 0 .3-.1.5-.3l1 .6 3.5-2v-4.3l-3.4-2h-.1l-3.5 2v4.3l1 .5c.5.3.8 0 .8-.3v-4l.1-.2h.4l.1.1v4c0 .8-.3 1.1-1 1.1l-.8-.2-.9-.5a.8.8 0 0 1-.3-.6v-4c0-.4.1-.6.3-.7l3.4-2c.3-.2.6-.2.8 0l3.4 2c.2.1.3.3.3.6v4c0 .3 0 .6-.3.7l-3.4 2-.4.1Zm2.8-4c0-.7-.5-1-1.6-1-1-.2-1.1-.3-1.1-.5 0-.3 0-.5.8-.5.7 0 1 .1 1.1.6h.6c0-.9-.6-1.3-1.7-1.3-1 0-1.5.5-1.5 1.2s.6 1 1.5 1c1.1.2 1.2.3 1.2.6 0 .4-.3.5-1 .5-1 0-1.1-.2-1.2-.7H18c0 .6.3 1.3 1.8 1.3 1 0 1.7-.4 1.7-1.2Zm3.2-3c0 .4-.3.7-.7.7a.7.7 0 0 1-.6-.7c0-.4.3-.7.6-.7.4 0 .7.3.7.7Zm-.1 0c0-.3-.3-.6-.6-.6s-.5.3-.5.6.2.6.5.6.6-.3.6-.6Zm-.3.4h-.1v-.3H24v.3H24v-.8h.2c.1 0 .3 0 .3.2l-.1.2v.2l.1.2Zm-.1-.6H24v.1H24.3Zm-16-8.6c0-.2-.2-.3-.3-.4L4.4 9.7h-.5L.3 12l-.2.4V18l.1.2h.2L2.6 17l.2-.4v-2.7c0-.2 0-.3.2-.4l1-.5.2-.1h.2l.9.6.2.4v2.7c0 .1 0 .3.2.4L8 18.2H8l.1-.2v-5.7ZM28 6v10.7l-.3.4-3.6 2.1c-.1.1-.3.1-.4 0L20 17.1a.5.5 0 0 1-.2-.4v-4.3l.2-.4 3.7-2.2h.4l1 .6.1-.2V4.5l.4-.2 2.1 1.3c.2 0 .3.2.3.4Zm-2.8 7.8L24 13l-1.3.7v1.6l1.2.8h.1l1.3-.7v-1.6Zm12.4 0c.2-.1.3-.3.3-.4v-1c0-.2-.1-.4-.3-.5l-3.6-2.1h-.4l-3.6 2.1c-.2.1-.2.3-.2.4v4.3c0 .2 0 .3.2.4l3.6 2.1c.1.1.3.1.4 0l2.2-1.2c.1-.1.1-.3 0-.4l-3.7-2.2v-1.7l1.2-.7h.2l1.1.7.1.2v1c0 .2.2.3.4.3l2.1-1.3Zm-4.5.2v.9l.7.5.7-.5V14l-.6-.4h-.1l-.7.4Zm-15 2.6v-4.3l-.3-.3-3.6-2.2h-.5L10.2 12l-.2.3v4.3l.2.4 3.7 2.1c.1.1.3.1.4 0l3.6-2a.5.5 0 0 0 .2-.5ZM13.6 9Zm4.5 8v-.1Z"/></g><defs><clipPath id="a"><path fill="#fff" d="M.1.7H38v31H.1z"/></clipPath></defs></svg>