<svg xmlns="http://www.w3.org/2000/svg" width="30" height="30" fill="none"><path fill="#7952B3" d="M17.4 11.8c0-1.3-.8-2-2.3-2h-2.6V14h2.2c1.7 0 2.7-.8 2.7-2.2Zm9.5-.7c-.5-1.9-.5-4-.5-5.8 0-1.8-1.2-3.4-2.8-3.4H6.4c-1.6 0-2.9 1.6-2.8 3.4 0 1.7 0 4-.5 5.8-.5 1.8-1.4 3-2.7 3v1.7C1.7 16 2.6 17.1 3 19c.5 1.9.6 4 .5 5.8 0 1.8 1.2 3.4 2.8 3.4h17.2c1.6 0 2.9-1.6 2.8-3.4 0-1.7 0-4 .5-5.8.5-1.8 1.4-3 2.7-3v-1.7c-1.3-.2-2.2-1.3-2.7-3.1ZM15.6 22h-5V8h5c2.3 0 3.7 1.4 3.7 3.5 0 1.5-1 2.8-2.2 3v.1c1.7.2 2.9 1.6 2.9 3.4 0 2.5-1.7 4-4.4 4Zm-.5-6.4h-2.6v4.6h2.7c1.8 0 2.8-.8 2.8-2.3 0-1.5-1-2.3-2.9-2.3Z"/></svg>