<svg xmlns="http://www.w3.org/2000/svg" width="75" height="75" fill="none"><path fill="#39526C" d="M59 48.8V65C59 70.6 46 75 29.6 75a58.7 58.7 0 0 1-24.7-4.5c-2.7-1.4-4.4-3-4.7-4.7L0 65V48.2l.1-.3.2-.6c1.7-3.6 9-6.5 18.8-7.8l4-.4a81.2 81.2 0 0 1 12.8 0l4 .4c9.9 1.3 17.2 4.2 18.8 7.8l.3.6V48.8Z"/><path fill="#E8E8E9" d="M59 48.8v.8c0 5.5-13.1 9.9-29.5 9.9-16.3 0-29.5-4.4-29.5-10v-.7.3c.4 4 7.4 7.2 17.3 8.7l1 .2a37.2 37.2 0 0 0 2.5.3 75.6 75.6 0 0 0 7.2.4h3.1a78.3 78.3 0 0 0 9.7-.7l1-.2c9.9-1.5 16.9-4.8 17.3-8.7v-.3Z" opacity=".1"/><path fill="#CEDCE4" d="M59 48.7v.4c-.5 4-7.4 7.2-17.2 8.7l-1 .2-1 .1H39l-.8.2-2.8.2-1.5.1-3 .1h-3l-3-.1-1.4-.1a96.6 96.6 0 0 1-3.6-.3h-.6l-1-.2-1.1-.2C7.5 56.3.5 53 0 49.1v-.5a3.4 3.4 0 0 1 0-.6h.1v-.4l.2-.4c1.6-3.5 8.6-6.5 18-7.8L22 39a83 83 0 0 1 18.8.4c9.5 1.3 16.5 4.3 18 7.8l.3.6v.9ZM49.3 62.5V67c-2.4.8-5 1.3-8 1.8v-4.6c3-.4 5.6-1 8-1.7Z"/><path fill="#040000" d="M59 47.8c-1.4 5.1-14 9-29.5 9-15.3 0-28-3.9-29.4-9v-.2l.2-.4c1.6-3.5 8.6-6.5 18-7.8L22 39a83 83 0 0 1 15.2 0h.1l3.5.4c9.5 1.3 16.5 4.3 18 7.8l.3.6Z" opacity=".3"/><path fill="#39526C" d="M59 29.4v16.4a3.6 3.6 0 0 1-.3 1.5c-2.2 4.7-14.4 8.4-29.2 8.4-14.7 0-27-3.7-29.2-8.4l-.1-.4-.1-.4v-.3l-.1-.4V29.4l.1-.9.2-.6c1.7-3.5 9-6.5 18.9-7.7a76 76 0 0 1 20.7 0c9.8 1.2 17.2 4.2 18.8 7.7l.2.6.2 1Z"/><path fill="#E8E8E9" d="M59 29.5v.8c0 4.1-7.5 7.6-18.3 9.1l-.8.1a85.6 85.6 0 0 1-21.5 0C7.6 37.8 0 34.3 0 30.2v-.8.3c.4 4 7.7 7.3 18 8.8h.3a48.2 48.2 0 0 0 4.8.5 75.5 75.5 0 0 0 6.4.3h1.6l4.8-.3a37.5 37.5 0 0 0 4.9-.5h.3c10.3-1.5 17.6-4.8 18-8.8v-.3Z" opacity=".1"/><path fill="#CEDCE4" d="M59 29.4v.4c-.5 4-7.7 7.3-18 8.8h-.2l-1 .2a59.2 59.2 0 0 0-2.7.2l-1.2.1h-.4a56.8 56.8 0 0 1-4.4.3h-3l-3-.2h-1.9l-1.3-.2a34.7 34.7 0 0 1-2.5-.2l-1-.2H18C7.8 37 .6 33.8 0 29.8v-.4a3.7 3.7 0 0 1 .1-1H59v.9ZM49.3 43.1v4.6c-2.4.7-5 1.3-8 1.7V45c3-.5 5.6-1 8-1.8Z"/><path fill="#040000" d="M59 28.5c-1.5 5-14 9-29.5 9-15.3 0-28-4-29.4-9H59Z" opacity=".3"/><path fill="#39526C" d="M59 10v16.4a3.7 3.7 0 0 1-.6 2c-2.8 4.6-14.6 8-28.9 8-14.2 0-26-3.4-28.9-8a6 6 0 0 1-.3-.5 3 3 0 0 1-.1-.4l-.1-.3v-.4l-.1-.4V10.1C.1 4.6 13.3.2 29.5.2c10.1 0 19 1.7 24.3 4.3 3.1 1.5 5 3.3 5.3 5.2v.4Z"/><path fill="#E8E8E9" d="M59 10.1v.8c0 4.3-7.9 7.9-19 9.3a85.4 85.4 0 0 1-20.8 0C8 18.8 0 15.2 0 10.9v-.8c0 4.5 8.7 8.2 20.8 9.5a125.8 125.8 0 0 0 8.7.4 89.1 89.1 0 0 0 8.8-.4c12-1.3 20.8-5 20.8-9.5Z" opacity=".1"/><path fill="#CEDCE4" d="M59 10c0 4.5-8.7 8.3-20.7 9.6a125.7 125.7 0 0 1-8.8.4 89.2 89.2 0 0 1-8.7-.4C8.8 18.3 0 14.6 0 10 0 4.4 13.2 0 29.5 0c9.9 0 18.6 1.6 24 4.2 3.4 1.5 5.4 3.5 5.6 5.5v.3ZM49.3 23.8v4.6c-2.4.7-5 1.3-8 1.7v-4.6c3-.4 5.6-1 8-1.7Z"/><path fill="#fff" d="M29.5 0v75a58.7 58.7 0 0 1-24.7-4.5c-2.7-1.4-4.4-3-4.7-4.7L0 65V48h.1v-.4l.2-.4-.1-.3-.1-.4v-.3l-.1-.4V29.4a3.7 3.7 0 0 1 .3-1.5 3 3 0 0 1-.1-.4l-.1-.3v-.4l-.1-.4V10C0 4.5 13.2 0 29.5 0Z" opacity=".2"/></svg>