<svg xmlns="http://www.w3.org/2000/svg" width="75" height="75" fill="none"><path fill="#fff" stroke="#fff" stroke-width="1.6" d="M39.3 7a18.1 18.1 0 0 0-14.5 29l1.5 2c3 4 3.9 6.6 4.2 7.6h-.3a.7.7 0 0 0-.7.7v4.8a.7.7 0 0 0 .7.7h18.6a.7.7 0 0 0 .7-.7v-4.8a.7.7 0 0 0-.7-.7h-.6c.3-1 1.2-3.6 4-7.5l1.5-2a18 18 0 0 0-1.6-23.8C48.7 9 44.1 7 39.3 7Zm12.3 27.6-1.5 2a23.7 23.7 0 0 0-4.6 9H33.2a24 24 0 0 0-4.7-9.2l-1.6-2a15.5 15.5 0 1 1 24.7.2Z"/><path fill="#fff" stroke="#fff" stroke-width="1.6" d="M34.2 56a1.9 1.9 0 0 0 1.8 2h2.3v2a3 3 0 0 1-3 3h-12a3 3 0 0 1-2.9-3v-7h2.4a3 3 0 0 0 3-3v-4.5a3 3 0 0 0-2.8-3v-2.8h-2.5v2.9h-2.4v-3h-2.5v3a3 3 0 0 0-3 3V50a3 3 0 0 0 3 3h2.3v7a5.4 5.4 0 0 0 5.4 5.4h12a5.4 5.4 0 0 0 5.5-5.4v-2H43a1.9 1.9 0 0 0 1.9-2v-2H34.2v2Zm-19-6v-4.5a.3.3 0 0 1 .3-.3h7.3a.3.3 0 0 1 .3.3V50a.3.3 0 0 1-.3.4h-7.3a.3.3 0 0 1-.3-.4ZM45 26.4h-2.8a1 1 0 0 1-.9-1.3l2.4-6.2a1 1 0 0 0-.9-1.3h-6.1a1 1 0 0 0-1 .7l-2.6 12.5a1 1 0 0 0 1 1.1h4a1 1 0 0 1 .9 1.2l-1 5.1c-.2 1 1 1.4 1.5.6l6.3-11a1 1 0 0 0-.8-1.4Z"/></svg>