<svg xmlns="http://www.w3.org/2000/svg" width="30" height="30" fill="none"><g clip-path="url(#a)"><path fill="#13AA52" d="M15.4 30c8 0 14.5-6.7 14.5-15S23.4 0 15.4 0 .8 6.7.8 15s6.5 15 14.6 15Z"/><path fill="#fff" d="M19.3 13.2c-1-4.2-3.1-5.6-3.4-6.1l-.5-1c0 .3 0 .4-.4.8-.5.4-3.2 2.8-3.4 7.5-.2 4.4 3 7 3.5 7.4l.3 2.2h.4c0-.8.2-1.5.3-2.3l.6-.5c1-1 2.7-3 2.7-6.4l-.1-1.6Zm-4 6.1s0-6.2.3-6.2l.3 8c-.2 0-.5-1.3-.5-1.8Z"/></g><defs><clipPath id="a"><path fill="#fff" d="M.8 0H30v30H1z"/></clipPath></defs></svg>