<svg xmlns="http://www.w3.org/2000/svg" width="30" height="30" fill="none"><path fill="#61DAFB" d="m24.5 10.4-1-.3.2-.7c.7-3.5.2-6.3-1.4-7.2-1.5-.9-4 0-6.6 2.3L15 5l-.5-.4c-2.6-2.4-5.3-3.4-7-2.5-1.4 1-1.9 3.6-1.3 6.9l.3 1c-.4 0-.8.2-1.1.3C2.2 11.5 0 13.2 0 15c0 1.8 2.4 3.6 5.6 4.8l.8.2-.2 1c-.6 3.3-.1 5.9 1.4 6.8 1.6.9 4.2 0 6.8-2.3l.7-.6.7.7c2.6 2.2 5 3 6.6 2.2 1.5-1 2-3.7 1.4-7l-.2-.9.6-.1c3.4-1.2 5.8-3 5.8-4.8 0-1.8-2.3-3.5-5.5-4.6Zm-8-5c2.3-1.9 4.3-2.6 5.2-2.1 1 .6 1.4 2.9.8 5.9l-.2.6a30 30 0 0 0-4-.7l-2.4-3 .7-.7ZM9.9 18l1 1.5c-1 0-1.9-.2-2.8-.4l1-2.6.8 1.5ZM8 11l2.7-.5a34.5 34.5 0 0 0-1.7 3A28 28 0 0 1 8 11Zm1.6 4a36.8 36.8 0 0 1 2.7-4.7 36.7 36.7 0 0 1 5.4 0 41 41 0 0 1 2.7 4.7 38.9 38.9 0 0 1-2.7 4.7 36.9 36.9 0 0 1-5.4 0A35.7 35.7 0 0 1 9.6 15Zm10.6 3 .9-1.6 1 2.6-2.8.5 1-1.5Zm.9-4.5a48.7 48.7 0 0 0-1.8-3l2.7.5-1 2.5ZM15 7 16.6 9h-3.4L15 7ZM8.1 3.3c1-.5 3.2.3 5.5 2.3l.4.4-2.5 3.1-4 .7-.1-1c-.6-2.8-.2-5 .7-5.5ZM6.8 18.8a15 15 0 0 1-4.4-2c-.6-.5-1-1.1-1.1-1.8 0-1.1 1.8-2.5 4.5-3.4l1-.3L8.2 15a32 32 0 0 0-1.4 3.8Zm6.8 5.7c-1 1-2 1.6-3.3 2.1-.6.3-1.4.3-2 0-1-.5-1.4-2.5-.9-5.3l.3-1c1.3.3 2.6.5 4 .6a31 31 0 0 0 2.5 3.1l-.6.5Zm1.4-1.4L13.3 21a41.7 41.7 0 0 0 3.5 0L15 23Zm7.7 1.8c0 .7-.4 1.3-1 1.8-.9.5-2.9-.2-5-2a25 25 0 0 1-.8-.7c1-1 1.8-2 2.5-3.1 1.3-.1 2.7-.3 4-.6l.2.7c.2 1.2.3 2.6.1 3.9Zm1-6.3-.4.1c-.4-1.3-1-2.5-1.5-3.7l1.4-3.7.9.3c2.7.9 4.6 2.3 4.6 3.4s-2 2.6-5 3.6Zm-8.7-1a2.7 2.7 0 1 0 0-5.3 2.7 2.7 0 0 0 0 5.4Z"/></svg>