<svg xmlns="http://www.w3.org/2000/svg" width="25" height="25" fill="none"><g clip-path="url(#a)"><path fill="#515151" d="M12.4352.0165c-1.0461.0039-2.0875.1344-3.1008.3945C4.4594 1.6235.5898 6.0384.0938 11.0462c-.6149 4.7367 1.782 9.6726 5.8789 12.118 4.025 2.5187 9.4726 2.4179 13.4117-.2313 3.5406-2.2992 5.7414-6.4867 5.6117-10.7148-.0602-4.182-2.4086-8.2477-6.0023-10.3961C17.0367.6134 14.7344.007 12.4352.0157v.0008Zm-.0696 1.7656c5.1508-.0086 10.1969 3.975 10.7133 9.2977.9852 5.8961-3.9101 11.8898-9.8836 12.0648-5.6804.5656-11.1742-4.2523-11.3367-9.957-.4227-4.618 2.625-9.204 6.9781-10.7305a9.455 9.455 0 0 1 3.5281-.671l.0008-.004Zm5.3063 3.3617c-2.8 2.172-5.4813 4.4875-8.2196 6.7258 1.2532.0156 2.5149.0156 3.7719.0071 1.4688-2.254 2.9789-4.4782 4.4477-6.7329Zm-5.9 7.9711c-1.4688 2.2586-2.982 4.4875-4.4524 6.7461 2.8086-2.1687 5.4774-4.5 8.2321-6.7258-1.2618-.0156-2.5227-.0195-3.7805-.0195l.0008-.0008Z"/></g><defs><clipPath id="a"><path fill="#fff" d="M0 0h25v25H0z"/></clipPath></defs></svg>